<svg width="44" height="42" viewBox="0 0 44 42" fill="none" xmlns="http://www.w3.org/2000/svg">
    <path fill-rule="evenodd" clip-rule="evenodd"
        d="M24.6046 1.72426C23.1108 0.231131 20.6895 0.231622 19.1964 1.72537L6.73505 14.1918L6.72443 14.1887L6.68505 14.1929C6.70127 14.2007 6.71719 14.2084 6.73279 14.2162C4.54681 14.4452 3.61933 15.1021 3.60883 15.9457C3.61253 16.2595 3.74128 16.5984 3.97777 16.9502L3.9664 16.9616C5.95368 19.9589 15.7986 23.9128 22.7636 21.2339C17.5436 23.8439 5.25025 24.3612 1.6395 19.2936C0.855356 20.1419 0.527276 21.2567 0.650826 22.328C1.60469 27.5854 12.2689 29.0197 22.9332 21.4024L25.2409 23.7101C22.3693 26.6603 18.1276 43.7968 24.4303 41.1804C24.5798 41.0789 24.7067 40.9881 24.8793 40.8575L25.1602 40.5923C25.144 40.5963 25.1279 40.6001 25.1119 40.6039L41.9919 24.6682C43.5592 23.1885 43.5947 20.7066 42.0702 19.1827L24.6046 1.72426ZM22.7664 6.91755L23.3433 4.60986L23.9202 6.91755L25.651 7.49448L23.9202 8.07142L23.3433 10.3791L22.7664 8.07142L21.0356 7.49448L22.7664 6.91755ZM15.6255 14.4509L16.0101 12.9124L16.3947 14.4509L17.5486 14.8355L16.3947 15.2201L16.0101 16.7586L15.6255 15.2201L14.4717 14.8355L15.6255 14.4509ZM29.0211 27.4278L28.6365 28.9662L27.4827 29.3509L28.6365 29.7355L29.0211 31.2739L29.4057 29.7355L30.5596 29.3509L29.4057 28.9662L29.0211 27.4278Z"
        fill="#4845D2" />
    <path fill-rule="evenodd" clip-rule="evenodd"
        d="M43.2917 3.25122C39.683 3.25122 36.2607 4.85413 33.9504 7.62643L25.7314 17.4893L30.4774 10.3702L22.5994 13.7465C21.5989 14.1753 21.3479 15.4788 22.1175 16.2485L24.6527 18.7836L23.3583 20.3369L26.206 23.1845L27.7592 21.8901L30.2944 24.4253C31.064 25.1949 32.3676 24.9439 32.7963 23.9435L36.1726 16.0655L29.0536 20.8115L38.9165 12.5924C41.6888 10.2822 43.2917 6.85994 43.2917 3.25122ZM35.4608 11.0823C36.2471 11.8686 37.522 11.8686 38.3084 11.0823C39.0947 10.2959 39.0947 9.02104 38.3084 8.23474C37.522 7.44835 36.2471 7.44835 35.4608 8.23474C34.6744 9.02104 34.6744 10.2959 35.4608 11.0823Z"
        fill="#A3A2FF" />
    <path opacity="0.6"
        d="M1.54785 19.1609C3.43331 25.6207 14.8965 25.2839 22.7613 21.2348C17.4949 23.8664 5.03687 24.369 1.54785 19.1609Z"
        fill="#424242" />
    <path opacity="0.6"
        d="M24.4301 41.1802C19.1193 43.3848 21.2954 31.5644 23.8298 26.0244C21.9824 30.9486 20.4053 41.8037 25.16 40.5921L24.8791 40.8573C24.7065 40.9879 24.5796 41.0787 24.4301 41.1802Z"
        fill="#424242" />
</svg>
    